<mxfile host="app.diagrams.net" modified="2021-04-02T06:50:13.746Z" agent="5.0 (Windows NT 10.0; Win64; x64) AppleWebKit/537.36 (KHTML, like Gecko) Chrome/89.0.4389.114 Safari/537.36" etag="5ZX8dc50gZEm6d7-6qEo" version="14.5.4" type="github">
  <diagram name="Page-1" id="e3a06f82-3646-2815-327d-82caf3d4e204">
    <mxGraphModel dx="3440.5" dy="2266" grid="1" gridSize="10" guides="1" tooltips="1" connect="1" arrows="1" fold="1" page="1" pageScale="1.5" pageWidth="1169" pageHeight="826" background="none" math="0" shadow="0">
      <root>
        <mxCell id="0" style=";html=1;" />
        <mxCell id="1" style=";html=1;" parent="0" />
        <mxCell id="6a7d8f32e03d9370-61" value="内部处理" style="whiteSpace=wrap;html=1;fillColor=#f8cecc;fontSize=14;strokeColor=none;verticalAlign=top;" parent="1" vertex="1">
          <mxGeometry x="1084" y="300" width="493" height="360" as="geometry" />
        </mxCell>
        <mxCell id="6a7d8f32e03d9370-59" value="网关 防火墙" style="whiteSpace=wrap;html=1;fillColor=#EDEDED;fontSize=14;strokeColor=none;verticalAlign=top;" parent="1" vertex="1">
          <mxGeometry x="597" y="360" width="280" height="542" as="geometry" />
        </mxCell>
        <mxCell id="6a7d8f32e03d9370-57" value="车辆" style="whiteSpace=wrap;html=1;fillColor=#FFD470;gradientColor=none;fontSize=14;strokeColor=none;verticalAlign=top;" parent="1" vertex="1">
          <mxGeometry x="-150" y="360" width="618" height="542" as="geometry" />
        </mxCell>
        <mxCell id="6a7d8f32e03d9370-34" style="edgeStyle=none;rounded=0;html=1;startSize=10;endSize=10;jettySize=auto;orthogonalLoop=1;fontSize=14;endArrow=none;endFill=0;strokeWidth=2;entryX=0.017;entryY=0.78;entryDx=0;entryDy=0;entryPerimeter=0;exitX=0.836;exitY=0.386;exitDx=0;exitDy=0;exitPerimeter=0;" parent="1" source="6a7d8f32e03d9370-3" target="6a7d8f32e03d9370-5" edge="1">
          <mxGeometry relative="1" as="geometry" />
        </mxCell>
        <mxCell id="6a7d8f32e03d9370-3" value="温度" style="verticalLabelPosition=bottom;aspect=fixed;html=1;verticalAlign=top;strokeColor=none;shape=mxgraph.citrix.desktop;fillColor=#66B2FF;gradientColor=#0066CC;fontSize=14;" parent="1" vertex="1">
          <mxGeometry x="190.99999999999994" y="751" width="89" height="98" as="geometry" />
        </mxCell>
        <mxCell id="6a7d8f32e03d9370-33" style="edgeStyle=none;rounded=0;html=1;startSize=10;endSize=10;jettySize=auto;orthogonalLoop=1;fontSize=14;endArrow=none;endFill=0;strokeWidth=2;exitX=0.958;exitY=0.744;exitDx=0;exitDy=0;exitPerimeter=0;entryX=0.069;entryY=0.098;entryDx=0;entryDy=0;entryPerimeter=0;" parent="1" source="6a7d8f32e03d9370-4" target="6a7d8f32e03d9370-5" edge="1">
          <mxGeometry relative="1" as="geometry" />
        </mxCell>
        <mxCell id="6a7d8f32e03d9370-4" value="视频" style="verticalLabelPosition=bottom;aspect=fixed;html=1;verticalAlign=top;strokeColor=none;shape=mxgraph.citrix.desktop;fillColor=#66B2FF;gradientColor=#0066CC;fontSize=14;" parent="1" vertex="1">
          <mxGeometry x="190.99999999999994" y="418.00000000000006" width="89" height="98" as="geometry" />
        </mxCell>
        <mxCell id="6a7d8f32e03d9370-32" style="edgeStyle=none;rounded=0;html=1;startSize=10;endSize=10;jettySize=auto;orthogonalLoop=1;fontSize=14;endArrow=none;endFill=0;strokeWidth=2;" parent="1" source="6a7d8f32e03d9370-5" target="6a7d8f32e03d9370-11" edge="1">
          <mxGeometry relative="1" as="geometry" />
        </mxCell>
        <mxCell id="6a7d8f32e03d9370-5" value="部标" style="verticalLabelPosition=bottom;aspect=fixed;html=1;verticalAlign=top;strokeColor=none;shape=mxgraph.citrix.desktop;fillColor=#66B2FF;gradientColor=#0066CC;fontSize=14;" parent="1" vertex="1">
          <mxGeometry x="351.00000000000006" y="582" width="89" height="98" as="geometry" />
        </mxCell>
        <mxCell id="6a7d8f32e03d9370-42" style="edgeStyle=none;rounded=0;html=1;startSize=10;endSize=10;jettySize=auto;orthogonalLoop=1;fontSize=14;endArrow=none;endFill=0;strokeWidth=2;" parent="1" source="6a7d8f32e03d9370-11" target="6a7d8f32e03d9370-18" edge="1">
          <mxGeometry relative="1" as="geometry" />
        </mxCell>
        <mxCell id="6a7d8f32e03d9370-11" value="" style="verticalLabelPosition=bottom;aspect=fixed;html=1;verticalAlign=top;strokeColor=none;shape=mxgraph.citrix.xenapp_server;fillColor=#66B2FF;gradientColor=#0066CC;fontSize=14;" parent="1" vertex="1">
          <mxGeometry x="634.9999999999999" y="582" width="76" height="89" as="geometry" />
        </mxCell>
        <mxCell id="6a7d8f32e03d9370-52" style="edgeStyle=none;rounded=0;html=1;startSize=10;endSize=10;jettySize=auto;orthogonalLoop=1;fontSize=14;endArrow=none;endFill=0;strokeWidth=2;" parent="1" source="6a7d8f32e03d9370-13" target="d3iWiOkbir187pmeCiRf-10" edge="1">
          <mxGeometry relative="1" as="geometry">
            <mxPoint x="1175" y="544.7091836734694" as="targetPoint" />
          </mxGeometry>
        </mxCell>
        <mxCell id="6a7d8f32e03d9370-13" value="" style="verticalLabelPosition=bottom;aspect=fixed;html=1;verticalAlign=top;strokeColor=none;shape=mxgraph.citrix.router;fillColor=#66B2FF;gradientColor=#0066CC;fontSize=14;" parent="1" vertex="1">
          <mxGeometry x="973" y="587" width="55" height="36.5" as="geometry" />
        </mxCell>
        <mxCell id="6a7d8f32e03d9370-45" style="edgeStyle=none;rounded=0;html=1;startSize=10;endSize=10;jettySize=auto;orthogonalLoop=1;fontSize=14;endArrow=none;endFill=0;strokeWidth=2;" parent="1" source="6a7d8f32e03d9370-18" target="6a7d8f32e03d9370-13" edge="1">
          <mxGeometry relative="1" as="geometry" />
        </mxCell>
        <mxCell id="6a7d8f32e03d9370-18" value="" style="verticalLabelPosition=bottom;aspect=fixed;html=1;verticalAlign=top;strokeColor=none;shape=mxgraph.citrix.firewall;fillColor=#66B2FF;gradientColor=#0066CC;fontSize=14;" parent="1" vertex="1">
          <mxGeometry x="757" y="582" width="75" height="93" as="geometry" />
        </mxCell>
        <mxCell id="6a7d8f32e03d9370-62" value="IOT拓扑图" style="text;strokeColor=none;fillColor=none;html=1;fontSize=24;fontStyle=1;verticalAlign=middle;align=center;" parent="1" vertex="1">
          <mxGeometry x="499" y="30" width="861" height="40" as="geometry" />
        </mxCell>
        <mxCell id="d3iWiOkbir187pmeCiRf-7" value="nginx" style="text;html=1;strokeColor=none;fillColor=none;align=center;verticalAlign=middle;whiteSpace=wrap;rounded=0;" parent="1" vertex="1">
          <mxGeometry x="910" y="570" width="40" height="20" as="geometry" />
        </mxCell>
        <mxCell id="d3iWiOkbir187pmeCiRf-8" value="iot.jaagro.com:6911" style="text;html=1;strokeColor=none;fillColor=none;align=center;verticalAlign=middle;whiteSpace=wrap;rounded=0;" parent="1" vertex="1">
          <mxGeometry x="640" y="710" width="35" height="20" as="geometry" />
        </mxCell>
        <mxCell id="d3iWiOkbir187pmeCiRf-14" value="" style="edgeStyle=orthogonalEdgeStyle;rounded=0;orthogonalLoop=1;jettySize=auto;html=1;" parent="1" source="d3iWiOkbir187pmeCiRf-10" edge="1">
          <mxGeometry relative="1" as="geometry">
            <mxPoint x="1290" y="383" as="targetPoint" />
          </mxGeometry>
        </mxCell>
        <mxCell id="d3iWiOkbir187pmeCiRf-10" value="" style="verticalLabelPosition=bottom;aspect=fixed;html=1;verticalAlign=top;strokeColor=none;align=center;outlineConnect=0;shape=mxgraph.citrix.file_server;" parent="1" vertex="1">
          <mxGeometry x="1130" y="334" width="71" height="97" as="geometry" />
        </mxCell>
        <mxCell id="d3iWiOkbir187pmeCiRf-12" value="808/1078/苏标&lt;br&gt;协议接受服务" style="text;html=1;strokeColor=none;fillColor=none;align=center;verticalAlign=middle;whiteSpace=wrap;rounded=0;" parent="1" vertex="1">
          <mxGeometry x="1145.5" y="430" width="104.5" height="50" as="geometry" />
        </mxCell>
        <mxCell id="d3iWiOkbir187pmeCiRf-20" value="" style="edgeStyle=orthogonalEdgeStyle;rounded=0;orthogonalLoop=1;jettySize=auto;html=1;" parent="1" source="d3iWiOkbir187pmeCiRf-16" target="d3iWiOkbir187pmeCiRf-19" edge="1">
          <mxGeometry relative="1" as="geometry" />
        </mxCell>
        <mxCell id="d3iWiOkbir187pmeCiRf-16" value="" style="verticalLabelPosition=bottom;aspect=fixed;html=1;verticalAlign=top;strokeColor=none;align=center;outlineConnect=0;shape=mxgraph.citrix.file_server;" parent="1" vertex="1">
          <mxGeometry x="1280" y="337" width="71" height="97" as="geometry" />
        </mxCell>
        <mxCell id="d3iWiOkbir187pmeCiRf-17" value="报文解析服务" style="text;html=1;strokeColor=none;fillColor=none;align=center;verticalAlign=middle;whiteSpace=wrap;rounded=0;" parent="1" vertex="1">
          <mxGeometry x="1263.25" y="427" width="104.5" height="50" as="geometry" />
        </mxCell>
        <mxCell id="d3iWiOkbir187pmeCiRf-19" value="" style="verticalLabelPosition=bottom;aspect=fixed;html=1;verticalAlign=top;strokeColor=none;align=center;outlineConnect=0;shape=mxgraph.citrix.web_server;" parent="1" vertex="1">
          <mxGeometry x="1430" y="341" width="76.5" height="90" as="geometry" />
        </mxCell>
        <mxCell id="d3iWiOkbir187pmeCiRf-21" value="业务处理" style="text;html=1;strokeColor=none;fillColor=none;align=center;verticalAlign=middle;whiteSpace=wrap;rounded=0;" parent="1" vertex="1">
          <mxGeometry x="1416" y="430" width="104.5" height="50" as="geometry" />
        </mxCell>
        <mxCell id="8EanOsA6HTf-lcCzWFGr-1" value="" style="html=1;outlineConnect=0;fillColor=#CCCCCC;strokeColor=#6881B3;gradientColor=none;gradientDirection=north;strokeWidth=2;shape=mxgraph.networks.comm_link_edge;html=1;" edge="1" parent="1">
          <mxGeometry width="100" height="100" relative="1" as="geometry">
            <mxPoint x="320" y="240" as="sourcePoint" />
            <mxPoint x="420" y="140" as="targetPoint" />
          </mxGeometry>
        </mxCell>
        <mxCell id="8EanOsA6HTf-lcCzWFGr-2" value="" style="fontColor=#0066CC;verticalAlign=top;verticalLabelPosition=bottom;labelPosition=center;align=center;html=1;outlineConnect=0;fillColor=#CCCCCC;strokeColor=#6881B3;gradientColor=none;gradientDirection=north;strokeWidth=2;shape=mxgraph.networks.satellite;" vertex="1" parent="1">
          <mxGeometry x="430" width="100" height="100" as="geometry" />
        </mxCell>
        <mxCell id="8EanOsA6HTf-lcCzWFGr-8" value="" style="html=1;outlineConnect=0;fillColor=#CCCCCC;strokeColor=#6881B3;gradientColor=none;gradientDirection=north;strokeWidth=2;shape=mxgraph.networks.comm_link_edge;html=1;exitX=0.91;exitY=0.09;exitDx=0;exitDy=0;exitPerimeter=0;" edge="1" parent="1" target="8EanOsA6HTf-lcCzWFGr-27">
          <mxGeometry width="100" height="100" relative="1" as="geometry">
            <mxPoint x="-1328.1" y="414" as="sourcePoint" />
            <mxPoint x="-1110" y="260" as="targetPoint" />
          </mxGeometry>
        </mxCell>
        <mxCell id="8EanOsA6HTf-lcCzWFGr-9" value="Internet" style="verticalLabelPosition=bottom;aspect=fixed;html=1;verticalAlign=top;strokeColor=none;align=center;outlineConnect=0;shape=mxgraph.citrix.cloud;" vertex="1" parent="1">
          <mxGeometry x="-830" y="459" width="210" height="137.05" as="geometry" />
        </mxCell>
        <mxCell id="8EanOsA6HTf-lcCzWFGr-12" value="" style="rounded=1;arcSize=0;dashed=0;fillColor=none;gradientColor=none;strokeWidth=2;" vertex="1" parent="1">
          <mxGeometry x="-1680" y="350" width="380" height="645" as="geometry" />
        </mxCell>
        <mxCell id="8EanOsA6HTf-lcCzWFGr-13" value="车辆" style="dashed=0;html=1;shape=mxgraph.aws3.instance;fillColor=#F58536;gradientColor=none;dashed=0;" vertex="1" parent="1">
          <mxGeometry x="-1680" y="350" width="40" height="41" as="geometry" />
        </mxCell>
        <mxCell id="8EanOsA6HTf-lcCzWFGr-15" value="" style="html=1;outlineConnect=0;fillColor=#CCCCCC;strokeColor=#6881B3;gradientColor=none;gradientDirection=north;strokeWidth=2;shape=mxgraph.networks.bus;gradientColor=none;gradientDirection=north;fontColor=#ffffff;perimeter=backbonePerimeter;backboneSize=20;" vertex="1" parent="1">
          <mxGeometry x="-640" y="530" width="330" height="20" as="geometry" />
        </mxCell>
        <mxCell id="8EanOsA6HTf-lcCzWFGr-22" style="edgeStyle=orthogonalEdgeStyle;rounded=0;orthogonalLoop=1;jettySize=auto;html=1;" edge="1" parent="1" source="8EanOsA6HTf-lcCzWFGr-16" target="8EanOsA6HTf-lcCzWFGr-21">
          <mxGeometry relative="1" as="geometry" />
        </mxCell>
        <mxCell id="8EanOsA6HTf-lcCzWFGr-16" value="某某设备" style="outlineConnect=0;dashed=0;verticalLabelPosition=bottom;verticalAlign=top;align=center;html=1;shape=mxgraph.aws3.generic;fillColor=#5294CF;gradientColor=none;" vertex="1" parent="1">
          <mxGeometry x="-1650" y="632.75" width="79.5" height="79.5" as="geometry" />
        </mxCell>
        <mxCell id="8EanOsA6HTf-lcCzWFGr-23" style="edgeStyle=orthogonalEdgeStyle;rounded=0;orthogonalLoop=1;jettySize=auto;html=1;" edge="1" parent="1" source="8EanOsA6HTf-lcCzWFGr-17" target="8EanOsA6HTf-lcCzWFGr-21">
          <mxGeometry relative="1" as="geometry" />
        </mxCell>
        <mxCell id="8EanOsA6HTf-lcCzWFGr-17" value=",某某设备" style="outlineConnect=0;dashed=0;verticalLabelPosition=bottom;verticalAlign=top;align=center;html=1;shape=mxgraph.aws3.medical_emergency;fillColor=#5294CF;gradientColor=none;" vertex="1" parent="1">
          <mxGeometry x="-1650" y="769.5" width="79.5" height="79.5" as="geometry" />
        </mxCell>
        <mxCell id="8EanOsA6HTf-lcCzWFGr-24" style="edgeStyle=orthogonalEdgeStyle;rounded=0;orthogonalLoop=1;jettySize=auto;html=1;" edge="1" parent="1" source="8EanOsA6HTf-lcCzWFGr-18" target="8EanOsA6HTf-lcCzWFGr-21">
          <mxGeometry relative="1" as="geometry" />
        </mxCell>
        <mxCell id="8EanOsA6HTf-lcCzWFGr-18" value="某某温度" style="outlineConnect=0;dashed=0;verticalLabelPosition=bottom;verticalAlign=top;align=center;html=1;shape=mxgraph.aws3.thermostat;fillColor=#5294CF;gradientColor=none;" vertex="1" parent="1">
          <mxGeometry x="-1640.25" y="890" width="79.5" height="79.5" as="geometry" />
        </mxCell>
        <mxCell id="8EanOsA6HTf-lcCzWFGr-20" style="edgeStyle=orthogonalEdgeStyle;rounded=0;orthogonalLoop=1;jettySize=auto;html=1;" edge="1" parent="1" source="8EanOsA6HTf-lcCzWFGr-19" target="8EanOsA6HTf-lcCzWFGr-21">
          <mxGeometry relative="1" as="geometry" />
        </mxCell>
        <mxCell id="8EanOsA6HTf-lcCzWFGr-19" value="某某你懂" style="outlineConnect=0;dashed=0;verticalLabelPosition=bottom;verticalAlign=top;align=center;html=1;shape=mxgraph.aws3.camera;fillColor=#5294CF;gradientColor=none;" vertex="1" parent="1">
          <mxGeometry x="-1650" y="507.5" width="79.5" height="79.5" as="geometry" />
        </mxCell>
        <mxCell id="8EanOsA6HTf-lcCzWFGr-21" value="" style="fontColor=#0066CC;verticalAlign=top;verticalLabelPosition=bottom;labelPosition=center;align=center;html=1;outlineConnect=0;fillColor=#CCCCCC;strokeColor=#6881B3;gradientColor=none;gradientDirection=north;strokeWidth=2;shape=mxgraph.networks.satellite_dish;" vertex="1" parent="1">
          <mxGeometry x="-1410" y="405" width="90" height="100" as="geometry" />
        </mxCell>
        <mxCell id="8EanOsA6HTf-lcCzWFGr-25" value="" style="fontColor=#0066CC;verticalAlign=top;verticalLabelPosition=bottom;labelPosition=center;align=center;html=1;outlineConnect=0;fillColor=#CCCCCC;strokeColor=#6881B3;gradientColor=none;gradientDirection=north;strokeWidth=2;shape=mxgraph.networks.satellite;" vertex="1" parent="1">
          <mxGeometry x="-1520" y="70" width="100" height="100" as="geometry" />
        </mxCell>
        <mxCell id="8EanOsA6HTf-lcCzWFGr-26" value="" style="html=1;outlineConnect=0;fillColor=#CCCCCC;strokeColor=#6881B3;gradientColor=none;gradientDirection=north;strokeWidth=2;shape=mxgraph.networks.comm_link_edge;html=1;" edge="1" parent="1" source="8EanOsA6HTf-lcCzWFGr-19" target="8EanOsA6HTf-lcCzWFGr-25">
          <mxGeometry width="100" height="100" relative="1" as="geometry">
            <mxPoint x="-1328.1" y="414" as="sourcePoint" />
            <mxPoint x="-960" y="240" as="targetPoint" />
          </mxGeometry>
        </mxCell>
        <mxCell id="8EanOsA6HTf-lcCzWFGr-27" value="" style="fontColor=#0066CC;verticalAlign=top;verticalLabelPosition=bottom;labelPosition=center;align=center;html=1;outlineConnect=0;fillColor=#CCCCCC;strokeColor=#6881B3;gradientColor=none;gradientDirection=north;strokeWidth=2;shape=mxgraph.networks.radio_tower;" vertex="1" parent="1">
          <mxGeometry x="-1050" y="220" width="55" height="100" as="geometry" />
        </mxCell>
        <mxCell id="8EanOsA6HTf-lcCzWFGr-28" value="" style="html=1;outlineConnect=0;fillColor=#CCCCCC;strokeColor=#6881B3;gradientColor=none;gradientDirection=north;strokeWidth=2;shape=mxgraph.networks.comm_link_edge;html=1;exitX=0.33;exitY=0.5;exitDx=0;exitDy=0;exitPerimeter=0;" edge="1" parent="1" source="8EanOsA6HTf-lcCzWFGr-27" target="8EanOsA6HTf-lcCzWFGr-9">
          <mxGeometry width="100" height="100" relative="1" as="geometry">
            <mxPoint x="-1328.1" y="414" as="sourcePoint" />
            <mxPoint x="-1010" y="470" as="targetPoint" />
            <Array as="points">
              <mxPoint x="-990" y="670" />
            </Array>
          </mxGeometry>
        </mxCell>
      </root>
    </mxGraphModel>
  </diagram>
</mxfile>
